<?xml version="1.0" standalone="no"?>
<!DOCTYPE svg PUBLIC "-//W3C//DTD SVG 20010904//EN"
 "http://www.w3.org/TR/2001/REC-SVG-20010904/DTD/svg10.dtd">
<svg version="1.0" xmlns="http://www.w3.org/2000/svg"
 width="436.000000pt" height="436.000000pt" viewBox="0 0 436.000000 436.000000"
 preserveAspectRatio="xMidYMid meet">
<metadata>
Created by potrace 1.11, written by Peter Selinger 2001-2013
</metadata>
<g transform="translate(0.000000,436.000000) scale(0.100000,-0.100000)"
fill="#000000" stroke="none">
<path d="M1468 4355 c-2 -1 -27 -6 -56 -9 -30 -3 -75 -11 -100 -17 -26 -6 -54
-12 -63 -14 -292 -60 -562 -207 -780 -424 -135 -135 -280 -348 -337 -496 -10
-27 -22 -59 -27 -70 -15 -38 -62 -213 -71 -265 -3 -19 -8 -38 -10 -41 -17 -28
-24 -345 -10 -448 10 -71 60 -272 87 -352 34 -101 126 -280 181 -354 120 -161
211 -257 318 -339 216 -166 375 -243 624 -302 168 -40 221 -47 361 -47 128 -1
203 8 344 39 149 34 244 66 368 125 57 27 106 49 111 49 4 0 23 -15 40 -33 24
-24 32 -42 30 -63 -4 -56 33 -173 73 -232 39 -57 947 -970 1005 -1010 39 -27
150 -54 198 -48 60 8 120 27 151 49 40 28 375 364 402 402 12 17 28 58 37 92
18 67 11 134 -21 201 -21 44 -974 1002 -1045 1050 -50 35 -148 64 -215 66 -33
1 -49 8 -77 35 l-35 34 39 71 c46 84 99 215 124 304 19 69 19 71 41 172 43
199 39 409 -10 615 -9 39 -19 81 -21 95 -14 74 -122 342 -145 360 -3 3 -13 19
-22 36 -31 61 -171 240 -241 308 -39 38 -109 97 -156 132 -47 35 -89 67 -95
72 -38 31 -204 117 -285 147 -98 37 -252 76 -395 101 -38 6 -311 14 -317 9z"/>
</g>
</svg>
